<svg width="95" height="47" viewBox="0 0 95 47" fill="none" xmlns="http://www.w3.org/2000/svg">
<path d="M90.6545 0.893711C90.2179 1.53199 89.7812 2.53501 89.6357 3.08211C88.9807 5.45287 79.3017 17.8538 78.5011 17.4891C77.9917 17.2155 76.1723 18.948 74.4985 21.2276L71.5147 25.3308H65.6928H59.8708V14.3888V3.44684H47.8629C38.6933 3.44684 35.8551 3.72039 35.8551 4.63223C35.8551 5.45287 33.3807 5.63524 24.9388 5.45287L14.0226 5.08814V7.91482C14.0226 10.7415 14.0226 10.7415 9.94719 10.7415H5.8718L6.09012 18.2185L6.38122 25.7867L3.17913 25.422L0.0498047 25.1485L0.413679 33.2638C0.777554 42.4733 1.43253 44.6617 4.48907 46.303C8.92834 48.5825 13.2948 45.0264 13.2948 39.1907V35.8169L38.1838 35.9993L63.1456 36.1816L62.9273 39.1907C62.8545 40.832 63.2184 42.9292 63.7278 43.7498C65.1106 45.9382 68.531 47.3972 70.8598 46.7589C74.2074 45.847 75.4446 43.2027 75.6629 36.5464C75.8085 30.5283 75.8812 30.4371 79.8839 25.3308C82.1399 22.5041 83.8865 19.6775 83.7409 19.1304C83.5954 18.5833 86.1425 14.8447 89.2718 10.6503C93.9294 4.63223 94.8755 2.89974 94.2933 1.71436C93.3472 -0.200489 91.6006 -0.56522 90.6545 0.893711ZM53.8305 5.27051H59.2158L58.9975 15.483L58.7791 25.7867L56.232 26.0603C54.8493 26.2427 48.3723 26.1515 41.8954 25.7867L30.0331 25.1485L30.3969 22.2306C30.5425 20.6805 30.688 18.8568 30.688 18.2185C30.7608 17.3067 32.1435 17.0331 36.2189 17.2155C39.2027 17.3067 41.8954 17.1243 42.1865 16.8508C42.4048 16.486 41.4587 16.2125 40.076 16.2125H37.4561L37.165 11.3798C36.7284 4.08512 36.7284 3.99394 42.987 4.72341C45.9708 4.99696 50.8467 5.27051 53.8305 5.27051ZM35.8551 11.6533V16.2125H32.653C29.6692 16.2125 29.5236 16.0301 29.5964 13.6594L29.6692 11.1974L22.61 10.9239C16.0603 10.7415 15.4781 10.5591 15.4781 8.91784C15.4781 7.18535 16.0603 7.09417 25.6666 7.09417H35.8551V11.6533ZM9.21944 13.0211C7.90949 14.2065 7.98227 14.2976 10.6022 14.3888C12.4943 14.3888 13.2948 14.0241 13.2948 13.0211C13.2948 12.2004 14.0226 11.6533 15.187 11.6533C16.5697 11.6533 17.0064 12.0181 16.6425 13.0211C16.3514 14.1153 17.0791 14.3888 21.0817 14.3888C26.7582 14.3888 26.6126 12.8387 20.9362 12.2916C17.9524 12.0181 18.1708 11.9269 22.5372 11.8357C25.3755 11.7445 27.9226 12.0181 28.1409 12.474C28.3592 12.9299 28.7231 16.0301 28.9414 19.3127L29.3053 25.422L18.5346 25.1485L7.83672 24.8749L7.61839 19.0392C7.47284 14.9359 7.69117 12.9299 8.34614 12.474C10.02 11.1062 10.7477 11.5621 9.21944 13.0211ZM80.7572 20.0422C80.6116 20.6805 79.8839 21.1364 79.2289 21.0452C78.4284 21.0452 78.1373 21.4099 78.3556 22.1394C78.5739 22.8689 78.3556 23.2336 77.8462 22.9601C77.264 22.6865 76.9001 23.416 76.8273 24.5102C76.6818 26.6074 75.1535 29.2517 75.1535 27.428C75.1535 26.8809 74.6441 26.2427 74.0619 26.0603C73.3341 25.8779 74.1346 24.6014 76.3179 22.3218C79.8111 18.8568 81.3394 18.0362 80.7572 20.0422ZM18.6802 29.4341C22.2461 30.1635 26.6854 30.8018 28.6503 30.8018C30.5425 30.8018 32.3619 31.1665 32.5802 31.7136C33.3079 33.1726 22.1734 32.8078 17.3702 31.2577C12.4943 29.6164 8.78279 29.3429 5.50792 30.2547C3.97965 30.7106 3.10635 30.6194 3.10635 29.9812C3.10635 28.887 8.71002 27.1545 10.7477 27.6104C11.5482 27.7928 15.1142 28.6134 18.6802 29.4341ZM41.677 27.9751C41.677 28.431 41.0221 29.1605 40.1488 29.4341C37.6744 30.4371 39.7121 31.9872 42.9142 31.5313C44.4425 31.2577 48.4451 30.3459 51.8655 29.5252C57.9786 27.884 64.2373 28.1575 64.2373 29.9812C64.2373 30.5283 62.8545 30.6194 60.7441 30.2547C58.4153 29.89 55.6498 30.2547 52.5205 31.2577C46.6985 33.0814 38.766 33.902 37.3833 32.7167C36.51 31.9872 36.51 31.5313 37.6017 29.5252C38.766 27.2457 41.677 26.1515 41.677 27.9751ZM36.2189 29.0693C36.51 29.6164 36.5828 30.1635 36.51 30.2547C35.7823 30.893 24.9388 29.6164 24.9388 28.887C24.9388 27.7016 35.6367 27.884 36.2189 29.0693ZM70.3503 29.5252C71.0053 30.2547 71.3692 31.3489 71.1509 31.8048C70.8598 32.2607 71.0053 32.6255 71.3692 32.6255C72.5336 32.6255 74.4257 38.4612 73.9891 40.5584C73.3341 43.4763 69.9137 45.0264 67.1483 43.5675C64.7467 42.2909 63.9462 40.2849 64.6011 36.9111C65.0378 34.9962 64.7467 34.6315 62.709 34.0844C61.4718 33.8109 58.9975 33.5373 57.2509 33.5373C55.577 33.5373 53.9032 33.0814 53.6121 32.5343C52.9572 31.1665 63.0001 31.896 64.3828 33.2638C64.965 33.8109 66.2022 33.7197 67.7305 33.0814C69.9137 32.1696 69.9865 31.896 68.9676 30.8018C68.0216 29.7988 67.6577 29.89 66.8572 31.2577C65.9839 32.8078 65.9111 32.8078 65.4744 31.3489C65.1833 30.4371 65.1106 29.3429 65.4017 28.887C66.0566 27.5192 69.1132 27.9751 70.3503 29.5252ZM15.9147 32.7167C16.1331 33.1726 14.9687 33.5373 13.3676 33.5373C10.7477 33.5373 9.14667 32.6255 10.02 31.5313C10.5294 30.893 15.4781 31.896 15.9147 32.7167ZM10.2383 34.0844C11.8393 35.4522 12.3488 39.2819 11.2571 41.4703C9.72887 44.4793 3.8341 44.9352 3.8341 42.1085C3.8341 41.3791 3.543 41.0143 3.10635 41.2879C2.6697 41.6526 2.52415 40.6496 2.6697 38.8259C2.81525 37.1846 2.9608 35.0874 3.03358 34.1756C3.10635 32.1696 7.90949 31.9872 10.2383 34.0844Z" fill="#804000"/>
<path d="M38.7653 6.18251C38.1831 6.63843 38.3286 7.00316 39.1291 7.45908C40.8757 8.27973 43.1317 8.09736 43.1317 7.18553C43.1317 6.09133 39.7841 5.36186 38.7653 6.18251Z" fill="#804000"/>
<path d="M41.6768 22.1395C41.6768 23.1425 42.1862 23.4161 43.4961 22.9602C44.6605 22.5954 45.3155 22.7778 45.3155 23.5073C45.3155 24.0544 45.6794 24.2367 46.0433 23.9632C47.7898 22.5954 46.6982 20.7718 44.2239 20.7718C42.4045 20.7718 41.6768 21.1365 41.6768 22.1395Z" fill="#804000"/>
<path d="M8.2002 16.6685C8.2002 17.1244 9.65569 17.5803 11.4751 17.5803C13.5855 17.5803 14.7499 17.2156 14.7499 16.4861C14.7499 15.7567 13.6583 15.4831 11.4751 15.5743C9.65569 15.6655 8.2002 16.1214 8.2002 16.6685Z" fill="#804000"/>
<path d="M23.119 21.6835C22.6096 22.6865 22.5368 22.6865 24.7929 22.96C25.7389 23.1424 26.3939 22.6865 26.3939 21.957C26.3939 20.5893 23.774 20.3157 23.119 21.6835Z" fill="#804000"/>
</svg>
