<?xml version="1.0" encoding="UTF-8"?>
<svg version="1.1" xmlns="http://www.w3.org/2000/svg" width="512" height="512">
<path d="M0 0 C3.48379392 3.18303473 6.94266068 6.40022951 10 10 C10 10.66 10 11.32 10 12 C11.15321243 11.99111755 12.30642487 11.98223511 13.49458313 11.9730835 C24.39576451 11.89177632 35.29688385 11.83192859 46.19830036 11.79275131 C51.80200717 11.77193232 57.40546795 11.74371885 63.0090332 11.69824219 C68.42312709 11.65458131 73.83698525 11.63082017 79.25124168 11.62049103 C81.31038304 11.61313589 83.36951241 11.5987735 85.42855263 11.57707977 C111.16215121 11.31689119 111.16215121 11.31689119 121.27734375 20.93359375 C126.89387851 27.67088829 129.13682938 34.89753705 129.09765625 43.515625 C129.09443359 44.76601562 129.09121094 46.01640625 129.08789062 47.3046875 C129.07951172 48.60664063 129.07113281 49.90859375 129.0625 51.25 C129.05798828 52.56742187 129.05347656 53.88484375 129.04882812 55.2421875 C129.03704316 58.49483741 129.02059011 61.74739584 129 65 C129.97716476 64.67533752 130.95432953 64.35067505 131.96110535 64.01617432 C136.21525318 62.8080104 140.22318214 62.71816037 144.62231445 62.74121094 C145.45583435 62.7377063 146.28935425 62.73420166 147.14813232 62.73059082 C149.88660161 62.72183351 152.62480961 62.72760301 155.36328125 62.734375 C157.2798823 62.73302624 159.19648301 62.73108396 161.11308289 62.72857666 C165.12514511 62.72563319 169.1371181 62.72989662 173.14916992 62.73925781 C178.26991831 62.75062868 183.39045647 62.74410291 188.51119709 62.73211288 C192.46880143 62.72485351 196.42635673 62.72720127 200.38396263 62.73236847 C202.27084567 62.73369491 204.15773328 62.73209281 206.04461098 62.72740936 C226.09425979 62.68857324 241.62377803 65.66855871 256.27734375 80.20703125 C257.17582031 81.12871094 258.07429688 82.05039063 259 83 C259.74378906 83.74636719 260.48757813 84.49273437 261.25390625 85.26171875 C267.56097251 91.91724171 272.80650807 99.39523647 278.1875 106.796875 C282.06340604 112.11619419 286.05679017 117.34065089 290.0625 122.5625 C292.0704031 125.19856716 294.07548765 127.83674577 296.07910156 130.47607422 C297.32377085 132.11148234 298.57285283 133.74354521 299.82714844 135.37158203 C312.99324072 152.50358495 323.48294802 170.59945374 323.41992188 192.73852539 C323.42839142 193.85548294 323.43686096 194.97244049 323.44558716 196.12324524 C323.46881069 199.78150096 323.46998303 203.43933269 323.46875 207.09765625 C323.47585857 209.65872869 323.48355858 212.21979955 323.49182129 214.78086853 C323.50523116 220.1343186 323.5070327 225.4876144 323.50097656 230.84106445 C323.49433013 237.00624258 323.51724373 243.17082331 323.55429029 249.33588034 C323.58880849 255.2994252 323.59531499 261.26278742 323.59120178 267.22643852 C323.59288997 269.74970724 323.60250327 272.27298407 323.62034607 274.79619026 C323.64258317 278.32822765 323.63280899 281.85883492 323.61523438 285.39086914 C323.63512924 286.93804626 323.63512924 286.93804626 323.65542603 288.51647949 C323.55231297 297.47559547 320.42021899 305.57978101 314 312 C307.08660161 317.28437923 301.16098362 320.27670627 292.2890625 320.1953125 C291.04511719 320.18886719 289.80117188 320.18242187 288.51953125 320.17578125 C287.23433594 320.15902344 285.94914062 320.14226562 284.625 320.125 C283.31660156 320.11597656 282.00820313 320.10695313 280.66015625 320.09765625 C277.4399163 320.07415085 274.22005293 320.04129087 271 320 C270.80470703 321.82724609 270.80470703 321.82724609 270.60546875 323.69140625 C268.84054937 337.69063591 259.17456132 350.18786557 248.5859375 359.01171875 C233.26153607 370.22528869 217.55154419 372.40355924 199 371 C182.71293179 368.15340218 168.59983834 358.54160139 159.078125 345.2578125 C154.19014241 337.59507288 151.04863199 329.80435331 149 321 C147.87722656 320.97421875 146.75445312 320.9484375 145.59765625 320.921875 C135.9168157 320.59435215 128.81937059 319.5483967 120.4375 314.4375 C117.32185974 313.87828252 116.56212231 314.64316302 113.9375 316.3125 C113.28652344 316.78300781 112.63554687 317.25351562 111.96484375 317.73828125 C108.67620567 319.85007071 105.53296633 320.125041 101.68463135 320.12025452 C100.40163902 320.12231651 100.40163902 320.12231651 99.09272766 320.12442017 C98.16268417 320.12082489 97.23264069 320.11722961 96.27441406 320.11352539 C95.28871933 320.11367142 94.3030246 320.11381744 93.28746033 320.1139679 C90.03015948 320.11327136 86.77291585 320.10549103 83.515625 320.09765625 C81.25689729 320.09579115 78.99816918 320.09436768 76.73944092 320.09336853 C70.79480879 320.08955059 64.85020109 320.07972645 58.90557861 320.06866455 C52.83939952 320.05843491 46.77321648 320.05386758 40.70703125 320.04882812 C28.80467676 320.03810356 16.90234041 320.02103578 5 320 C4.87452286 320.67401855 4.74904572 321.34803711 4.61976624 322.04248047 C4.36337624 323.37883545 4.36337624 323.37883545 4.10180664 324.7421875 C3.9350795 325.62245605 3.76835236 326.50272461 3.59657288 327.40966797 C2.71927506 331.21891362 1.22235075 334.53923715 -0.5625 338 C-0.91183594 338.68497559 -1.26117188 339.36995117 -1.62109375 340.07568359 C-9.5716825 355.03590046 -23.042097 364.4618245 -38.875 369.875 C-55.31010745 373.85854564 -73.50801185 371.90286979 -87.9375 363.125 C-89.97768156 361.77887536 -92.0012149 360.40685838 -94 359 C-94.68835938 358.51660156 -95.37671875 358.03320312 -96.0859375 357.53515625 C-107.68373156 348.48257944 -114.53089413 334.15283101 -117 320 C-118.17804199 320.04713135 -118.17804199 320.04713135 -119.37988281 320.09521484 C-123.00295179 320.22137813 -126.6255569 320.29842726 -130.25 320.375 C-131.48492187 320.42527344 -132.71984375 320.47554688 -133.9921875 320.52734375 C-144.00173133 320.68538918 -151.84145283 318.53027564 -159.47363281 311.82763672 C-166.25136973 305.08746316 -169.16676173 296.77012253 -169.4584198 287.28010559 C-169.46031067 284.7515305 -169.44061328 282.22287724 -169.40307617 279.69458008 C-169.39706175 278.2903713 -169.39295673 276.88615327 -169.39059448 275.48193359 C-169.38227411 272.47864653 -169.36216252 269.47576092 -169.33302879 266.47260475 C-169.28843468 261.70797464 -169.28027597 256.94369244 -169.27839661 252.17887878 C-169.26790031 238.63679627 -169.21460072 225.09517641 -169.11352539 211.5534668 C-169.05789663 204.05812139 -169.03511822 196.56337 -169.04685193 189.06782073 C-169.05148304 185.11416419 -169.03935627 181.16219897 -168.98549461 177.20887184 C-168.21246312 155.48422382 -168.21246312 155.48422382 -176.7414093 136.05766296 C-190.78040195 117.05178116 -191.36488873 87.61713612 -188.4921875 65.3359375 C-187.84503195 61.80261698 -187.026109 58.44096794 -186 55 C-185.64808594 53.76894531 -185.29617187 52.53789062 -184.93359375 51.26953125 C-176.22140903 22.31628346 -156.50136037 -1.3882648 -130.10522461 -15.92480469 C-118.26017819 -22.17267867 -106.22115913 -25.91326817 -93 -28 C-91.80697266 -28.19722656 -91.80697266 -28.19722656 -90.58984375 -28.3984375 C-57.81580862 -32.93166853 -24.44000325 -21.93174825 0 0 Z M-145.1875 23.25 C-162.06663657 42.48312075 -169.13762204 66.24203136 -168.17919922 91.46142578 C-166.96081669 108.72129156 -160.27334057 125.23258426 -150 139 C-149.33355469 139.92425781 -148.66710937 140.84851563 -147.98046875 141.80078125 C-135.65451806 157.96858671 -116.7120965 169.39627166 -97 174 C-96.05253906 174.22300781 -95.10507813 174.44601562 -94.12890625 174.67578125 C-70.71235632 179.34638212 -46.06670056 174.26796612 -26.15234375 161.24609375 C-4.42476999 145.76486089 9.80299054 125.11045596 14.609375 98.64453125 C17.33206277 73.24185435 12.62694256 49.61609486 -3 29 C-5.84851394 25.50245756 -8.83755779 22.21550332 -12 19 C-12.74765625 18.23945313 -13.4953125 17.47890625 -14.265625 16.6953125 C-31.04351649 0.63964813 -53.23712686 -7.44754671 -76.3125 -7.3125 C-77.81852783 -7.30512817 -77.81852783 -7.30512817 -79.35498047 -7.29760742 C-104.89811774 -6.89650324 -127.73553179 4.94801203 -145.1875 23.25 Z M25 34 C25.20223175 34.53334457 25.4044635 35.06668915 25.61282349 35.61619568 C26.54141972 38.07420836 27.46214796 40.53509977 28.3828125 42.99609375 C28.70096924 43.83474976 29.01912598 44.67340576 29.34692383 45.53747559 C40.56381854 75.63638618 36.93060202 107.27731135 23.91894531 136.08007812 C19.8534439 144.57399499 13.97052238 151.78934771 8 159 C7.236875 160.010625 6.47375 161.02125 5.6875 162.0625 C1.55516851 166.57923442 -3.17251858 170.25260992 -8 174 C-8.74894531 174.59941406 -9.49789062 175.19882812 -10.26953125 175.81640625 C-33.90886892 193.6597592 -64.1456705 198.56997133 -93.02099609 195.69970703 C-111.76475484 193.07831907 -129.40224956 185.41397448 -144.72851562 174.35961914 C-145.34521118 173.91582413 -145.96190674 173.47202911 -146.59729004 173.01478577 C-147.29163147 172.51246681 -147.29163147 172.51246681 -148 172 C-148.0701289 187.15124188 -148.12300718 202.30247627 -148.15543652 217.45384407 C-148.17089529 224.48914139 -148.19196577 231.52433778 -148.22631836 238.55957031 C-148.25945098 245.34820386 -148.27685069 252.13673243 -148.28463173 258.92544174 C-148.2901773 261.51621019 -148.30100632 264.10697285 -148.31719017 266.69769669 C-148.33894818 270.32479535 -148.34196752 273.95145992 -148.34057617 277.57861328 C-148.351362 278.65107803 -148.36214783 279.72354279 -148.3732605 280.82850647 C-148.34665267 287.23339004 -147.71852857 291.71511131 -143.5 296.8125 C-140.49426483 299.19204034 -137.55823059 299.1188337 -133.89453125 299.09765625 C-132.42016602 299.09282227 -132.42016602 299.09282227 -130.91601562 299.08789062 C-129.89185547 299.07951172 -128.86769531 299.07113281 -127.8125 299.0625 C-126.77673828 299.05798828 -125.74097656 299.05347656 -124.67382812 299.04882812 C-122.11582734 299.0370401 -119.55794267 299.02058515 -117 299 C-116.731875 298.06800781 -116.46375 297.13601563 -116.1875 296.17578125 C-110.79436278 278.32117494 -101.2806652 264.28892322 -84.640625 255.15625 C-68.8802021 247.60900523 -51.23814688 246.45698322 -34.47265625 251.6015625 C-28.48691587 254.01201813 -23.25844875 257.25234684 -18 261 C-16.96939453 261.72509766 -16.96939453 261.72509766 -15.91796875 262.46484375 C-5.87143982 270.28888998 0.01729224 282.24106501 3.5690918 294.18725586 C3.83755417 295.08834579 4.10601654 295.98943573 4.38261414 296.91783142 C4.58635147 297.60494705 4.79008881 298.29206268 5 299 C17.43045592 299.06949495 29.86086566 299.12280882 42.29147625 299.15543652 C48.06344652 299.17109577 53.83528393 299.19233903 59.60717773 299.22631836 C65.1768455 299.25890217 70.74638541 299.27685106 76.31614113 299.28463173 C78.44162827 299.29017696 80.56710837 299.30100536 82.69254112 299.31719017 C85.66847254 299.33895116 88.64387493 299.34196745 91.61987305 299.34057617 C92.49956757 299.351362 93.37926208 299.36214783 94.28561401 299.3732605 C99.00668308 299.34936056 102.17964883 299.10020251 106 296 C107.15764156 293.68471688 107.12824401 292.36251358 107.13422108 289.7854414 C107.14090784 288.45169469 107.14090784 288.45169469 107.14772969 287.0910036 C107.14754533 286.10804806 107.14736097 285.12509253 107.14717102 284.11235046 C107.15084771 283.07286359 107.1545244 282.03337672 107.1583125 280.96239024 C107.16938356 277.45628586 107.17319895 273.95021107 107.17700195 270.4440918 C107.18326395 267.93962509 107.18991051 265.43515932 107.19691467 262.93069458 C107.21616683 255.39862752 107.22674612 247.86656565 107.23564246 240.33448026 C107.24002382 236.7891614 107.24539101 233.24384405 107.25063133 229.69852638 C107.26764408 217.91608204 107.282139 206.13363863 107.28938007 194.35118389 C107.29129003 191.29279771 107.29321035 188.23441154 107.29516602 185.17602539 C107.29564976 184.41586118 107.2961335 183.65569697 107.2966319 182.87249748 C107.304935 170.55398982 107.33027639 158.23557919 107.36274669 145.91711392 C107.39579747 133.27557577 107.41382702 120.63408696 107.41702431 107.99250537 C107.41919121 100.89243576 107.42796594 93.79250765 107.45348549 86.69248009 C107.47742936 80.01534338 107.48103068 73.33850571 107.47072411 66.66131973 C107.47022677 64.20748486 107.47660512 61.75363775 107.49028015 59.29984093 C107.50787729 55.95578464 107.50095239 52.6126561 107.48774719 49.26860046 C107.49871644 48.2923371 107.50968568 47.31607373 107.52098733 46.31022662 C107.48033287 42.06048786 107.36541125 39.62484621 105.18465328 35.89579201 C102.09094119 33.21113961 99.29150366 33.33417199 95.38574219 33.43237305 C94.62437958 33.43164291 93.86301697 33.43091278 93.07858276 33.43016052 C90.56728339 33.43363821 88.05784942 33.47250458 85.546875 33.51171875 C83.80382297 33.52104631 82.06075782 33.52816269 80.31768799 33.53315735 C75.7339243 33.5522318 71.15095506 33.60133602 66.56750488 33.65667725 C61.88886258 33.70786035 57.21009168 33.73066936 52.53125 33.75585938 C43.35381796 33.80945466 34.17697509 33.89477259 25 34 Z M130 90 C128.45213318 93.09573365 128.85570998 96.36395819 128.85955811 99.76167297 C128.85658698 100.57248091 128.85361586 101.38328885 128.8505547 102.21866673 C128.84184406 104.95088252 128.84035746 107.68305461 128.83886719 110.4152832 C128.83424068 112.36803278 128.82921625 114.32078145 128.82382202 116.27352905 C128.81067974 121.58969215 128.80424948 126.90584262 128.79981136 132.22201943 C128.79688353 135.54110844 128.79277928 138.86019397 128.78830719 142.17928123 C128.77462734 152.5573981 128.76496312 162.93550705 128.7611053 173.31363231 C128.75662344 185.30572946 128.73907161 197.29771269 128.7101047 209.28977519 C128.68850852 218.55096589 128.67840212 227.8121245 128.67706418 237.07334012 C128.67601465 242.60843509 128.67007557 248.14342306 128.65224457 253.67849159 C128.63579959 258.88477183 128.63359099 264.0908642 128.64238358 269.2971611 C128.64315587 271.20917322 128.63878596 273.12119529 128.62892532 275.03318214 C128.61626153 277.64147214 128.62205215 280.24909119 128.63250732 282.8573761 C128.62445092 283.61574636 128.61639452 284.37411663 128.60809398 285.15546781 C128.65000255 289.61936165 129.26123625 292.44435686 132 296 C135.78586305 298.97322465 138.56281697 299.34408296 143.3125 299.1875 C144.38113281 299.16042969 145.44976562 299.13335937 146.55078125 299.10546875 C147.35902344 299.07066406 148.16726563 299.03585937 149 299 C149.33 297.845 149.66 296.69 150 295.5 C155.895271 278.16899497 165.21455001 263.46040826 182 255 C197.78342613 248.06760068 215.24707471 246.06617748 231.859375 251.67578125 C249.00119958 258.90349087 260.98485894 270.80602682 268 288 C269.08239291 291.64625228 270.06141865 295.31433123 271 299 C274.70806596 299.11674705 278.4156554 299.18743274 282.125 299.25 C283.69507813 299.30027344 283.69507813 299.30027344 285.296875 299.3515625 C291.5051491 299.43014825 295.37698105 299.33502761 300 295 C302.5877897 291.27118316 302.26823204 287.28928932 302.22705078 282.92675781 C302.22734283 282.11662735 302.22763489 281.30649689 302.22793579 280.47181702 C302.22654443 277.79881006 302.21099238 275.12608316 302.1953125 272.453125 C302.19158168 270.59796297 302.18873503 268.74279898 302.18673706 266.88763428 C302.17910604 262.00826565 302.15946207 257.12901635 302.1373291 252.24969482 C302.11685927 247.26934422 302.10773291 242.28897431 302.09765625 237.30859375 C302.07621571 227.53901011 302.04208612 217.76951498 302 208 C300.07559837 207.98786972 300.07559837 207.98786972 298.11231995 207.97549438 C286.00364851 207.89790598 273.89508767 207.81013468 261.78656101 207.71247292 C255.56191282 207.66259292 249.33728092 207.6162621 243.11254883 207.578125 C237.10188769 207.54116749 231.09136564 207.49477908 225.0808239 207.44193649 C222.79122299 207.42344813 220.50159233 207.40831981 218.21194649 207.39665604 C214.9973549 207.37969841 211.78307801 207.35064037 208.56860352 207.31884766 C207.15842453 207.31560738 207.15842453 207.31560738 205.71975708 207.31230164 C194.62679078 207.17275916 186.56411284 204.96604922 178.2421875 197.40234375 C170.79931649 189.49195571 169.38981259 180.27442726 169.46875 169.78125 C169.4649231 168.64272583 169.46109619 167.50420166 169.45715332 166.33117676 C169.45444627 163.93773508 169.46172221 161.5442632 169.47851562 159.15087891 C169.49994077 155.51006426 169.4786707 151.87122281 169.453125 148.23046875 C169.45576849 145.89322486 169.4608939 143.55598218 169.46875 141.21875 C169.46065308 140.1424231 169.45255615 139.06609619 169.44421387 137.95715332 C169.55582068 128.85709779 171.69702747 120.43377086 178.02734375 113.6015625 C185.08688424 107.87005438 193.24679055 104.9510483 202.24926758 104.79467773 C203.26994827 104.77473251 204.29062897 104.75478729 205.34223938 104.73423767 C206.97687386 104.70916893 206.97687386 104.70916893 208.64453125 104.68359375 C209.7694548 104.66281265 210.89437836 104.64203156 212.0533905 104.62062073 C215.6396994 104.55534208 219.22608027 104.49634101 222.8125 104.4375 C225.24675217 104.39429417 227.68099712 104.35067922 230.11523438 104.30664062 C236.07674728 104.1996829 242.03833146 104.0978765 248 104 C247.06744269 102.71941683 246.12964721 101.44264731 245.18969727 100.16748047 C244.4072036 99.10036331 244.4072036 99.10036331 243.60890198 98.01168823 C241.32266789 95.15309878 238.90536097 93.27717789 235.9375 91.125 C234.43509766 90.01511719 234.43509766 90.01511719 232.90234375 88.8828125 C227.38761195 85.30528797 222.85874579 84.69897258 216.35766602 84.69360352 C215.49850586 84.68528 214.6393457 84.67695648 213.75415039 84.66838074 C210.92068929 84.64433126 208.08745851 84.63551567 205.25390625 84.62890625 C203.28002352 84.61993749 201.30614148 84.61081559 199.33226013 84.60154724 C195.19732004 84.58506943 191.06246081 84.57735908 186.92749023 84.57446289 C181.63340289 84.56907425 176.34007678 84.53136897 171.04620457 84.48571873 C166.97036469 84.45595696 162.89470855 84.44873955 158.81876945 84.44773674 C156.86714115 84.44353424 154.9155123 84.43109877 152.96399117 84.41021919 C150.2326686 84.3833174 147.50311658 84.38812584 144.77172852 84.40063477 C143.96893967 84.38580048 143.16615082 84.37096619 142.33903503 84.35568237 C136.56243171 84.43089513 134.03354202 85.84890939 130 90 Z M192 130 C189.34374861 134.44776985 189.71057179 139.25225969 189.734375 144.28125 C189.73246155 145.17235474 189.7305481 146.06345947 189.72857666 146.98156738 C189.72721892 148.86092411 189.73088659 150.74029034 189.73925781 152.61962891 C189.74996317 155.49012392 189.73934858 158.35999312 189.7265625 161.23046875 C189.72788417 163.05989721 189.73044671 164.88932528 189.734375 166.71875 C189.73032654 167.57408325 189.72627808 168.4294165 189.72210693 169.31066895 C189.76935078 175.33825908 190.16620797 179.05200547 194.4513855 183.60404968 C198.66503905 187.00770341 202.9198235 186.66721983 208.13623047 186.56762695 C209.1417244 186.56835709 210.14721832 186.56908722 211.18318176 186.56983948 C214.49507244 186.56636579 217.80554357 186.5275132 221.1171875 186.48828125 C223.41788973 186.47895239 225.71860191 186.47183663 228.01931763 186.46684265 C234.06611698 186.44777886 240.11231304 186.39868232 246.15887451 186.34332275 C252.33239583 186.29211756 258.5060149 186.26932583 264.6796875 186.24414062 C276.78672297 186.19056386 288.89331126 186.10525771 301 186 C298.61132086 168.02803313 287.10320878 154.25565109 275.97505188 140.61381531 C274 138 274 138 272.2180481 134.95994568 C269.28677641 130.25138476 267.03924805 126.64963813 261.60464478 124.91835022 C257.49272712 124.54491133 253.54059862 124.53955823 249.421875 124.6875 C247.92217046 124.69975552 246.42242014 124.70724087 244.92266846 124.71020508 C241.79430085 124.72852677 238.67010692 124.78583073 235.54296875 124.875 C231.54226067 124.98853002 227.5448108 125.03188952 223.5426445 125.04972839 C219.71030589 125.07037364 215.87877834 125.12848964 212.046875 125.1875 C211.32087852 125.19502289 210.59488205 125.20254578 209.84688568 125.21029663 C207.7858107 125.2379084 205.72725283 125.29247419 203.66699219 125.35546875 C201.9123465 125.39643677 201.9123465 125.39643677 200.12225342 125.43823242 C196.38751143 126.11020125 194.70151462 127.38457426 192 130 Z M-86.875 282.98046875 C-95.14914957 293.34384109 -97.39016131 305.03970685 -96 318 C-93.31930356 328.79794548 -86.79995944 337.74310648 -77.625 343.9375 C-67.97969499 349.56282232 -58.45521741 351.50537995 -47.3671875 349.53125 C-35.6585183 346.44808946 -27.11177431 339.68717206 -20.46484375 329.69140625 C-14.75221417 319.54857414 -13.97526837 308.48930095 -16.828125 297.328125 C-20.677049 286.39718084 -27.8452851 278.55254845 -38 273.1875 C-55.33471518 265.15433931 -73.60870131 268.96794076 -86.875 282.98046875 Z M179.01171875 283.53515625 C171.28864664 292.99779411 168.92685163 304.01650991 170 316 C172.15876005 326.91676759 177.85144313 336.21351008 186.75 342.9375 C196.6465855 349.23257579 207.04467681 351.61249123 218.625 349.52734375 C229.2216261 346.76228663 238.65866522 340.60725086 244.69140625 331.42578125 C250.63730462 321.15298816 252.63698738 311.18245876 249.875 299.5625 C246.31798795 287.80960765 238.8195322 278.44878888 227.9375 272.5625 C210.2495237 264.79964066 192.06845796 269.84039139 179.01171875 283.53515625 Z " fill="#000000" transform="translate(189,141)"/>
<path d="M0 0 C4.75640509 4.86196859 4.45476226 9.70707508 4.45318604 16.28512573 C4.43276426 17.64581954 4.41190036 19.00650677 4.390625 20.3671875 C4.38315652 21.77107942 4.37746646 23.17498183 4.37347412 24.57888794 C4.35826516 28.25835392 4.31902582 31.93717955 4.2746582 35.61639404 C4.23360214 39.3769871 4.21544118 43.13768451 4.1953125 46.8984375 C4.15252559 54.26591565 4.08433348 61.6328678 4 69 C4.66 69 5.32 69 6 69 C9.95800173 74.68962749 10.9252369 79.1007026 10 86 C8.34393373 90.87619514 5.53937311 94.48596248 1 97 C-0.33968375 97.2011998 -1.68623449 97.3592991 -3.03515625 97.484375 C-10.01242742 98.91728348 -14.15465071 104.48562804 -18.8125 109.5 C-20.6445893 111.43470155 -22.48753836 113.35829635 -24.33203125 115.28125 C-25.13358643 116.13783203 -25.9351416 116.99441406 -26.76098633 117.87695312 C-30.87011796 121.77325763 -34.27470209 122.50523702 -39.80859375 122.38671875 C-43.40041924 121.75286719 -44.91753592 119.86338811 -47 117 C-48.54915352 113.90169297 -47.9581072 111.13891099 -46.88671875 107.890625 C-44.35140539 102.48493484 -39.55046644 98.50616465 -35.2734375 94.47265625 C-34.60401123 93.83070313 -33.93458496 93.18875 -33.24487305 92.52734375 C-31.89777252 91.24082838 -30.53501816 89.97046073 -29.15551758 88.71875 C-25.03327678 84.77896475 -23.17613625 81.91893298 -22.57543945 76.19116211 C-22 74 -22 74 -19.99517822 71.74928284 C-17.61077771 68.46366587 -17.50108839 66.83603571 -17.50170898 62.8203125 C-17.49167343 61.59554199 -17.48163788 60.37077148 -17.47129822 59.10888672 C-17.47948074 57.7942041 -17.48766327 56.47952148 -17.49609375 55.125 C-17.48872205 53.7540558 -17.47917161 52.38312174 -17.46754456 51.01220703 C-17.44088847 47.41048214 -17.43524713 43.80908825 -17.43664551 40.20727539 C-17.43887701 34.4429865 -17.42467441 28.67910708 -17.38105965 22.91497803 C-17.3712503 20.90704498 -17.38034959 18.89904826 -17.38975525 16.89111328 C-17.38287186 15.66634277 -17.37598846 14.44157227 -17.36889648 13.1796875 C-17.36985825 12.10444824 -17.37082001 11.02920898 -17.37181091 9.92138672 C-16.82151344 5.59759828 -15.10994466 2.97936293 -11.875 0.125 C-7.87876113 -1.43874565 -4.01121572 -1.67193786 0 0 Z " fill="#000000" transform="translate(119,144)"/>
</svg>
