<svg width="74" height="62" viewBox="0 0 74 62" fill="none" xmlns="http://www.w3.org/2000/svg">
<path d="M23.2755 0.754913C9.10532 4.7368 0.176758 15.8129 0.176758 29.5893C0.176758 39.4754 5.28514 48.8122 13.6362 54.1672L16.1682 55.8149V58.6983C16.1682 61.3987 16.2571 61.6275 17.2787 61.9021C17.8562 62.0394 25.4966 62.0394 34.2475 61.8564C42.9983 61.6733 55.2585 61.4902 61.4774 61.4444L72.8046 61.3987L72.9379 51.4211L73.0268 41.4892H70.5836H68.0961L68.1849 35.4019L68.2293 29.3605L64.8978 29.2232L61.5662 29.0858L61.2553 26.7059C59.7894 14.5771 51.0829 4.32489 39.5335 1.12106C34.6917 -0.206234 27.4067 -0.389309 23.2755 0.754913ZM24.697 1.44145C23.8974 1.8076 22.6092 2.5399 21.8985 3.08913C21.1433 3.63835 20.477 3.95874 20.3438 3.82143C19.8996 3.36374 24.2084 0.846451 25.4966 0.800682C25.8519 0.800682 25.4966 1.07529 24.697 1.44145ZM40.0666 4.09604C45.1305 5.97256 47.6625 7.57447 51.3494 11.3733C53.8814 13.9821 55.1696 15.7671 56.3246 18.2386C57.7904 21.4424 59.434 27.9874 58.9898 28.7655C58.8565 28.9485 54.6366 29.1316 49.5726 29.1316L40.3775 29.0858L42.5986 28.3078C44.2865 27.7128 44.864 27.3009 44.9529 26.477C45.1305 25.1497 44.6863 25.1955 39.8 27.072C37.5346 27.9416 35.2247 28.6739 34.6472 28.6739C34.0698 28.6739 33.359 28.9943 33.0481 29.3605C32.7372 29.7266 32.2929 30.047 32.0708 30.047C31.8043 30.047 31.7599 25.6989 31.9376 17.964C32.2041 8.76447 32.1597 5.83526 31.7599 5.56065C31.449 5.37757 31.138 5.3318 31.0047 5.46911C30.8715 5.56065 30.6938 11.7852 30.5161 19.2913L30.2496 32.9304L31.4045 32.61C32.6039 32.3354 32.6039 32.3354 32.6039 34.8527V37.37L24.5193 37.4615L16.3903 37.5989L16.1682 45.1049L15.9461 52.611L13.7251 50.7803C6.75103 45.1049 3.28621 38.1023 3.28621 29.5893C3.28621 22.1747 5.55167 16.7282 10.8377 11.236C14.4802 7.48294 17.6785 5.42334 22.2983 4.00451C26.5627 2.67721 27.0069 2.63144 32.1597 2.81451C35.7578 2.90605 37.5346 3.22643 40.0666 4.09604ZM45.4415 4.46219C48.1067 5.83526 50.6831 8.1237 53.9258 11.9683C57.4351 16.179 57.2574 15.9044 56.4578 15.584C56.058 15.4467 55.7027 15.1263 55.7027 14.9433C55.7027 14.7144 53.837 12.6091 51.616 10.2291C47.5293 5.97256 45.7524 4.78257 41.9322 3.68412C40.111 3.18066 40.0666 3.1349 41.3104 3.08913C42.0655 3.04336 43.9312 3.68412 45.4415 4.46219ZM14.3914 6.93371C14.3914 7.07102 13.1476 7.75755 11.6817 8.48985C9.50511 9.54254 9.10532 9.63408 9.81606 8.94754C10.3047 8.44408 11.4596 7.71178 12.4369 7.3914C14.4802 6.61333 14.3914 6.6591 14.3914 6.93371ZM6.39566 14.6229C5.86261 16.0417 5.24072 17.3232 5.01862 17.4606C4.48557 17.8267 4.48557 17.8267 5.55167 14.9433C6.61776 12.1056 6.83987 11.6021 7.10639 11.8768C7.23965 11.9683 6.88429 13.2498 6.39566 14.6229ZM4.17462 20.1609C4.17462 20.2982 3.9081 20.6644 3.59715 20.9848C3.28621 21.3051 2.66432 22.0832 2.26453 22.724C1.73148 23.502 1.50938 23.6394 1.50938 23.1359C1.50938 22.2663 3.15295 19.9778 3.77484 19.9778C3.99694 19.9778 4.17462 20.0694 4.17462 20.1609ZM59.5673 25.104C59.4784 25.9278 59.3896 25.287 59.3896 23.6394C59.3896 21.9917 59.4784 21.3509 59.5673 22.129C59.6561 22.9528 59.6561 24.3259 59.5673 25.104ZM67.1632 35.8596L67.2965 41.4434L61.3885 41.5807L55.4806 41.7181V50.8718V60.0256H52.8153H50.1501L50.0168 48.9038L49.928 37.8277H41.9767H34.0698L33.8032 34.2577C33.7144 32.3354 33.67 30.5962 33.8032 30.3674C33.8921 30.1843 41.4436 30.0928 50.5054 30.1385L67.03 30.2758L67.1632 35.8596ZM2.26453 33.8458C2.79758 34.6239 3.33063 35.9054 3.50831 36.6835C3.686 37.8277 3.686 37.8735 3.33063 37.0496C3.10853 36.5004 2.39779 35.2189 1.73148 34.212C0.398861 32.0151 0.843069 31.6489 2.26453 33.8458ZM48.9507 49.5903L48.8175 60.4833L33.1814 60.6206L17.5453 60.7579L17.412 57.8745C17.3232 56.2726 17.3232 51.3295 17.412 46.8442L17.5453 38.7431H33.3146H49.0396L48.9507 49.5903ZM71.7386 51.3295C71.6941 56.0895 71.5164 60.1629 71.3388 60.3002C71.1611 60.4833 67.7407 60.4833 63.6984 60.3002L56.369 60.0256L56.2357 51.7872C56.1913 47.3019 56.2357 43.32 56.369 42.9996C56.5467 42.4961 58.2347 42.4046 64.187 42.4961L71.8274 42.6334L71.7386 51.3295ZM8.48343 47.9884C8.92764 48.4918 9.01648 48.8122 8.70554 48.8122C7.99481 48.8122 6.97313 47.0272 6.66218 45.3796C6.39566 44.0523 6.39566 44.0523 7.10639 45.6084C7.50618 46.478 8.12807 47.5765 8.48343 47.9884Z" fill="#804000"/>
<path d="M56.5908 37.1412C56.5908 37.6904 56.9018 37.8277 57.7013 37.7362C58.3232 37.6446 58.8563 37.37 58.8563 37.1412C58.8563 36.8666 58.3232 36.6377 57.7013 36.5462C56.9018 36.4547 56.5908 36.592 56.5908 37.1412Z" fill="#804000"/>
<path d="M60.7219 36.7751C59.3004 37.3243 60.411 37.8278 63.0318 37.8278C64.6754 37.8278 65.9191 37.6447 65.9191 37.3701C65.9191 37.0955 65.1196 36.9124 64.1867 36.9124C63.2095 36.9124 62.1878 36.8208 61.8324 36.7293C61.5215 36.592 60.9884 36.6378 60.7219 36.7751Z" fill="#804000"/>
<path d="M22.3873 40.5284C20.2107 40.7572 19.5 40.986 19.5 41.4895C19.5 41.8557 19.7665 42.176 20.0775 42.1303C20.344 42.0845 21.8099 42.0387 23.2758 41.993C25.6301 41.9472 25.941 41.8557 25.941 41.0318C25.941 40.5284 25.8077 40.1622 25.6301 40.208C25.408 40.2537 23.9865 40.3911 22.3873 40.5284Z" fill="#804000"/>
<path d="M28.2492 40.665C27.272 41.6719 27.7162 41.9465 30.1149 41.9465C32.2471 41.9465 33.5353 41.3973 32.9578 40.7565C32.4692 40.2531 28.6934 40.2073 28.2492 40.665Z" fill="#804000"/>
<path d="M45.1751 56.9135C44.8642 57.005 44.6421 57.7831 44.6421 58.5612C44.6865 59.6596 44.7754 59.7511 44.9086 58.9731C45.1307 57.7831 45.8414 57.6916 46.641 58.7442C47.2185 59.5223 47.2185 59.5223 47.2629 58.6069C47.2629 58.1035 47.0408 57.4627 46.7299 57.1423C46.1524 56.5473 46.0191 56.5473 45.1751 56.9135Z" fill="#804000"/>
<path d="M41.3552 58.2861C40.7777 58.8354 41.0442 59.7965 41.7105 59.7965C42.0659 59.7965 42.3768 59.3846 42.3768 58.8811C42.3768 57.9658 41.8882 57.6911 41.3552 58.2861Z" fill="#804000"/>
<path d="M57.9238 44.2357C57.9238 44.4645 58.7234 44.6934 59.7007 44.6934C60.6779 44.6934 61.4775 44.4645 61.4775 44.2357C61.4775 43.9611 60.6779 43.778 59.7007 43.778C58.7234 43.778 57.9238 43.9611 57.9238 44.2357Z" fill="#804000"/>
</svg>
